<?xml version="1.0" encoding="UTF-8"?>
<svg xmlns="http://www.w3.org/2000/svg" id="Capa_29" data-name="Capa 29" viewBox="0 0 24 24">
  <path d="m0,0v24h24V0H0Zm11.913,21.163c-.951,0-1.856-.143-2.717-.408.377-.611.936-1.607,1.14-2.407.113-.43.574-2.181.574-2.181.294.574,1.17,1.057,2.098,1.057,2.762,0,4.755-2.543,4.755-5.706,0-3.034-2.475-5.298-5.653-5.298-3.962,0-6.06,2.657-6.06,5.547,0,1.351.717,3.019,1.864,3.555.174.083.272.045.31-.121.03-.128.189-.755.257-1.041.022-.091.015-.174-.06-.264-.377-.46-.679-1.306-.679-2.091,0-2.023,1.532-3.977,4.143-3.977,2.257,0,3.834,1.532,3.834,3.728,0,2.475-1.252,4.196-2.883,4.196-.898,0-1.577-.747-1.358-1.66.264-1.094.762-2.272.762-3.056,0-.702-.377-1.29-1.162-1.29-.921,0-1.66.951-1.66,2.226,0,.807.272,1.358.272,1.358,0,0-.906,3.841-1.072,4.558-.181.793-.113,1.909-.03,2.634-3.528-1.381-5.99-4.886-5.818-8.944.201-4.723,4.151-8.621,8.875-8.764,5.194-.158,9.455,4.006,9.44,9.18,0,5.064-4.106,9.169-9.169,9.169Z"/>
</svg>
