<?xml version="1.0" encoding="UTF-8"?>
<svg xmlns="http://www.w3.org/2000/svg" id="Capa_7" data-name="Capa 7" viewBox="0 0 24 24">
  <defs>
    <style>
      .cls-1 {
        fill-rule: evenodd;
      }
    </style>
  </defs>
  <path class="cls-1" d="m12,0C5.373,0,0,5.373,0,12s5.373,12,12,12,12-5.373,12-12S18.627,0,12,0Zm-2.877,5.22l7.3,4.084-2.047,2.047-6.315-6.315c.359-.085.742-.023,1.061.184Zm-2.123,12.403V6.376c0-.304.101-.592.278-.826l6.45,6.45-6.45,6.45c-.176-.234-.278-.522-.278-.826Zm2.123,1.156c-.227.147-.486.221-.747.221-.105,0-.211-.013-.314-.038l6.314-6.314,2.047,2.047-7.3,4.084Zm9.971-5.579l-1.84,1.029-2.23-2.23,2.23-2.23,1.839,1.029c.441.247.704.696.704,1.2s-.263.954-.704,1.201Z"/>
</svg>
